<svg width="188" height="171" viewBox="0 0 188 171" fill="none" xmlns="http://www.w3.org/2000/svg">
<path d="M175.806 0H12.1679C5.45854 0 0 5.45855 0 12.1679V108.725C0 115.434 5.45854 120.893 12.1679 120.893H26.1856C26.4524 121.265 26.7549 121.624 27.0971 121.967C28.9311 123.8 31.4666 124.692 34.8486 124.692C35.4556 124.692 36.0698 124.662 36.6872 124.616V166.397C36.6872 167.851 37.4695 169.193 38.7349 169.909C39.9996 170.625 41.553 170.606 42.8004 169.858L63.6086 157.373L84.4168 169.858C85.0557 170.241 85.7741 170.433 86.4933 170.433C87.1787 170.433 87.8645 170.259 88.4819 169.909C89.7473 169.193 90.5296 167.851 90.5296 166.397V124.616C91.1469 124.662 91.7616 124.692 92.3682 124.692C95.7502 124.692 98.2857 123.8 100.119 121.967C100.461 121.624 100.764 121.265 101.031 120.893H175.806C182.515 120.893 187.973 115.434 187.973 108.725V12.1679C187.974 5.45855 182.516 0 175.806 0ZM65.6851 149.205C64.407 148.438 62.8102 148.438 61.5316 149.205L44.7601 159.268V123.654C45.1249 123.63 45.4774 123.615 45.8133 123.615C46.8693 123.615 47.4213 123.753 47.6985 123.867C48.8617 124.35 50.6342 126.735 52.0584 128.651C54.9975 132.607 58.3292 137.09 63.6086 137.09C68.888 137.09 72.2196 132.607 75.1588 128.651C76.583 126.735 78.3555 124.35 79.5187 123.867C79.7959 123.753 80.3482 123.615 81.4038 123.615C81.7398 123.615 82.0927 123.63 82.4575 123.654V159.268L65.6851 149.205ZM94.4117 116.259C94.3967 116.273 94.0319 116.619 92.3682 116.619C90.957 116.619 89.2618 116.378 87.467 116.122C85.4666 115.837 83.3985 115.542 81.4034 115.542C79.4626 115.542 77.8342 115.826 76.4262 116.41C73.2049 117.746 70.9042 120.842 68.6793 123.836C67.2393 125.774 64.8291 129.017 63.6082 129.017C62.3873 129.017 59.9771 125.774 58.5375 123.836C56.3126 120.842 54.0119 117.746 50.7906 116.41C49.3825 115.826 47.7546 115.542 45.8133 115.542C43.8187 115.542 41.7502 115.837 39.7501 116.122C37.9557 116.378 36.2605 116.619 34.849 116.619C33.1853 116.619 32.8201 116.273 32.8055 116.259C32.0593 115.512 32.6336 111.481 32.9419 109.315C33.4813 105.529 34.039 101.614 32.654 98.2734C31.3182 95.0521 28.2218 92.7514 25.2281 90.5265C23.2899 89.0865 20.0467 86.6763 20.0467 85.4558C20.0467 84.2353 23.2899 81.8251 25.2277 80.3852C28.2218 78.1602 31.3182 75.8596 32.654 72.6382C34.0394 69.2982 33.4816 65.383 32.9423 61.597C32.6336 59.4309 32.0597 55.3992 32.8062 54.6527C32.8208 54.6377 33.1856 54.2922 34.849 54.2922C36.2597 54.2922 37.955 54.5336 39.7494 54.7892C41.7498 55.074 43.8183 55.3689 45.8133 55.3689C47.7546 55.3689 49.3829 55.0852 50.791 54.5013C54.0123 53.1655 56.313 50.0695 58.5379 47.0753C59.9779 45.1376 62.3881 41.8943 63.6086 41.8943C64.8295 41.8943 67.2397 45.1376 68.6796 47.0753C70.9046 50.0695 73.2052 53.1655 76.4265 54.5013C77.8346 55.0852 79.4626 55.3689 81.4042 55.3689C83.3989 55.3689 85.467 55.0744 87.4674 54.7896C89.2618 54.5339 90.957 54.2925 92.3682 54.2925C94.0319 54.2925 94.3971 54.6385 94.4117 54.6535C95.1582 55.4 94.5839 59.4316 94.2756 61.5974C93.7363 65.3834 93.1785 69.2978 94.5635 72.6382C95.8997 75.8596 98.9957 78.1606 101.99 80.3855C103.928 81.8255 107.171 84.2357 107.171 85.4562C107.171 86.6767 103.928 89.0869 101.99 90.5269C98.9957 92.7518 95.8993 95.0525 94.5635 98.2742C93.1785 101.614 93.7363 105.529 94.2752 109.315C94.5839 111.48 95.1582 115.512 94.4117 116.259ZM179.901 108.725C179.901 110.983 178.064 112.82 175.806 112.82H102.799C102.706 111.26 102.483 109.686 102.267 108.176C101.918 105.72 101.482 102.664 102.02 101.366C102.503 100.203 104.888 98.4303 106.805 97.006C110.76 94.0665 115.243 90.7352 115.243 85.4558C115.243 80.1764 110.76 76.8448 106.805 73.9056C104.888 72.4814 102.503 70.7089 102.02 69.5461C101.482 68.248 101.918 65.1916 102.267 62.736C102.948 57.9586 103.719 52.5443 100.12 48.9451C98.2861 47.1111 95.7506 46.2197 92.3682 46.2197C90.385 46.2197 88.3231 46.5133 86.3292 46.7974C84.5279 47.0538 82.8269 47.296 81.4042 47.296C80.3482 47.296 79.7962 47.1591 79.5187 47.0438C78.3555 46.5618 76.583 44.1762 75.1588 42.2599C72.2196 38.3044 68.888 33.8211 63.6086 33.8211C58.3292 33.8211 54.9975 38.3044 52.0584 42.2599C50.6342 44.1765 48.862 46.5618 47.6988 47.0438C47.4213 47.1588 46.8693 47.296 45.8133 47.296C44.3907 47.296 42.6889 47.0538 40.888 46.797C38.8937 46.513 36.8321 46.2193 34.849 46.2193C31.467 46.2193 28.9314 47.1107 27.0978 48.9439C23.4986 52.5431 24.2698 57.9578 24.9505 62.7348C25.3004 65.1908 25.7355 68.2468 25.1973 69.5453C24.7149 70.7085 22.3297 72.481 20.413 73.9052C16.4575 76.8444 11.9742 80.176 11.9742 85.4555C11.9742 90.7349 16.4575 94.0665 20.413 97.0057C22.3297 98.4299 24.7149 100.202 25.1969 101.365C25.7355 102.663 25.3 105.72 24.9502 108.176C24.7349 109.686 24.5112 111.26 24.4189 112.82H12.1679C9.90956 112.82 8.0725 110.983 8.0725 108.724V12.1679C8.0725 9.90957 9.90956 8.0725 12.1679 8.0725H175.806C178.064 8.0725 179.901 9.90957 179.901 12.1679V108.725Z" fill="#273453"/>
</svg>
